<svg width="33" height="32" viewBox="0 0 33 32" fill="none" xmlns="http://www.w3.org/2000/svg">
    <path d="M17 9.00001V15.1913L22.2762 12.5525C22.3949 12.4932 22.5323 12.4834 22.6582 12.5254C22.7841 12.5673 22.8882 12.6576 22.9475 12.7763C23.0068 12.8949 23.0166 13.0323 22.9746 13.1582C22.9327 13.2841 22.8424 13.3882 22.7237 13.4475L16.7237 16.4475C16.6542 16.4819 16.5776 16.4999 16.5 16.5C16.3674 16.5 16.2402 16.4473 16.1464 16.3536C16.0527 16.2598 16 16.1326 16 16V9.00001C16 8.8674 16.0527 8.74022 16.1464 8.64645C16.2402 8.55268 16.3674 8.50001 16.5 8.50001C16.6326 8.50001 16.7598 8.55268 16.8536 8.64645C16.9473 8.74022 17 8.8674 17 9.00001ZM16.5 27.5C14.2255 27.5 12.0021 26.8255 10.1109 25.5619C8.21977 24.2983 6.74579 22.5022 5.87538 20.4009C5.00498 18.2995 4.77724 15.9872 5.22097 13.7565C5.6647 11.5257 6.75997 9.47658 8.36827 7.86828C9.97657 6.25997 12.0257 5.1647 14.2565 4.72097C16.4872 4.27724 18.7995 4.50498 20.9009 5.37539C23.0022 6.2458 24.7983 7.71978 26.0619 9.61095C27.3255 11.5021 28 13.7255 28 16C28 16.1326 28.0527 16.2598 28.1464 16.3536C28.2402 16.4473 28.3674 16.5 28.5 16.5C28.6326 16.5 28.7598 16.4473 28.8535 16.3536C28.9473 16.2598 29 16.1326 29 16C29 13.5277 28.2669 11.111 26.8934 9.05538C25.5198 6.99976 23.5676 5.39761 21.2835 4.45151C18.9995 3.50542 16.4861 3.25787 14.0614 3.74019C11.6366 4.22251 9.40932 5.41301 7.66116 7.16117C5.91301 8.90933 4.7225 11.1366 4.24018 13.5614C3.75787 15.9861 4.00541 18.4995 4.9515 20.7835C5.8976 23.0676 7.49976 25.0199 9.55537 26.3934C11.611 27.7669 14.0277 28.5 16.5 28.5C16.6326 28.5 16.7598 28.4473 16.8536 28.3536C16.9473 28.2598 17 28.1326 17 28C17 27.8674 16.9473 27.7402 16.8536 27.6465C16.7598 27.5527 16.6326 27.5 16.5 27.5ZM28.9825 27.875C29.0013 27.9391 29.0071 28.0063 28.9995 28.0726C28.992 28.1389 28.9712 28.2031 28.9384 28.2613C28.9056 28.3195 28.8615 28.3705 28.8087 28.4113C28.7559 28.4522 28.6955 28.4821 28.6309 28.4992C28.5664 28.5163 28.4991 28.5203 28.433 28.511C28.3668 28.5017 28.3033 28.4792 28.246 28.4449C28.1887 28.4106 28.1388 28.3652 28.0994 28.3113C28.0599 28.2575 28.0317 28.1962 28.0162 28.1313C27.605 26.585 26.1587 25.5063 24.5 25.5063C22.8412 25.5063 21.395 26.5875 20.9825 28.1313C20.9549 28.2383 20.8925 28.3332 20.8052 28.401C20.7179 28.4689 20.6106 28.5059 20.5 28.5063C20.4577 28.5062 20.4157 28.5003 20.375 28.4888C20.2469 28.4547 20.1375 28.3712 20.071 28.2566C20.0044 28.142 19.9861 28.0056 20.02 27.8775C20.1958 27.2249 20.5153 26.62 20.9553 26.1069C21.3952 25.5939 21.9444 25.1858 22.5625 24.9125C21.9366 24.4964 21.4612 23.8899 21.2067 23.1827C20.9522 22.4755 20.9322 21.7052 21.1495 20.9857C21.3668 20.2662 21.8099 19.6358 22.4134 19.1877C23.0168 18.7396 23.7484 18.4977 24.5 18.4977C25.2516 18.4977 25.9832 18.7396 26.5866 19.1877C27.19 19.6358 27.6332 20.2662 27.8505 20.9857C28.0678 21.7052 28.0477 22.4755 27.7933 23.1827C27.5388 23.8899 27.0634 24.4964 26.4375 24.9125C27.056 25.1849 27.6057 25.5924 28.0461 26.105C28.4865 26.6177 28.8064 27.2225 28.9825 27.875ZM24.5 24.5C24.9944 24.5 25.4778 24.3534 25.8889 24.0787C26.3 23.804 26.6205 23.4135 26.8097 22.9567C26.9989 22.4999 27.0484 21.9972 26.952 21.5123C26.8555 21.0273 26.6174 20.5819 26.2678 20.2322C25.9181 19.8826 25.4727 19.6445 24.9877 19.548C24.5028 19.4516 24.0001 19.5011 23.5433 19.6903C23.0865 19.8795 22.696 20.2 22.4213 20.6111C22.1466 21.0222 22 21.5056 22 22C22 22.663 22.2634 23.2989 22.7322 23.7678C23.2011 24.2366 23.837 24.5 24.5 24.5Z" fill="#919191" stroke="#919191"/>
</svg>
