<svg width="24" height="25" viewBox="0 0 24 25" fill="none" xmlns="http://www.w3.org/2000/svg">
<path d="M14.6665 8.50039L9.05719 14.2244C8.80709 14.4745 8.66659 14.8137 8.66659 15.1674C8.66659 15.5211 8.80709 15.8603 9.05719 16.1104C9.30729 16.3605 9.6465 16.501 10.0002 16.501C10.3539 16.501 10.6931 16.3605 10.9432 16.1104L16.5525 10.3864C17.0526 9.88628 17.3336 9.20798 17.3336 8.50072C17.3336 7.79346 17.0526 7.11516 16.5525 6.61505C16.0524 6.11494 15.3741 5.83398 14.6669 5.83398C13.9596 5.83398 13.2813 6.11494 12.7812 6.61505L7.19519 12.3157C6.81879 12.686 6.51943 13.1272 6.31439 13.6138C6.10934 14.1004 6.00267 14.6228 6.00052 15.1508C5.99837 15.6788 6.10079 16.202 6.30186 16.6903C6.50294 17.1785 6.79869 17.6221 7.17206 17.9955C7.54543 18.3689 7.98904 18.6646 8.47728 18.8657C8.96553 19.0668 9.48875 19.1692 10.0168 19.1671C10.5448 19.1649 11.0672 19.0582 11.5538 18.8532C12.0404 18.6481 12.4815 18.3488 12.8519 17.9724L18.4379 12.2717" stroke="#919191" stroke-linecap="round" stroke-linejoin="round"/>
</svg>
