<svg width="33" height="32" viewBox="0 0 33 32" fill="none" xmlns="http://www.w3.org/2000/svg">
    <path d="M4.30952 9.90481H28.7316M7.35714 3.80957H25.684C26.0842 3.80957 26.4805 3.8884 26.8503 4.04156C27.22 4.19471 27.556 4.4192 27.839 4.7022C28.122 4.98519 28.3465 5.32116 28.4996 5.69092C28.6528 6.06067 28.7316 6.45697 28.7316 6.85719V25.1277C28.7319 25.8965 28.4415 26.6371 27.9187 27.2009C27.3959 27.7647 26.6793 28.11 25.9126 28.1677L25.6688 28.1768L7.34191 28.0884C6.53627 28.0844 5.76501 27.7615 5.19676 27.1904C4.62851 26.6193 4.30951 25.8465 4.30952 25.0408V6.85719C4.30952 6.04891 4.63061 5.27374 5.20215 4.7022C5.77369 4.13066 6.54886 3.80957 7.35714 3.80957Z" stroke="#919191" stroke-width="2" stroke-linecap="round" stroke-linejoin="round"/>
    <path d="M10.4044 15.4763C10.6936 15.4763 10.9286 15.7106 10.9288 15.9998C10.9288 16.289 10.6937 16.5242 10.4044 16.5242C10.1153 16.524 9.88095 16.2889 9.88095 15.9998C9.88115 15.7108 10.1154 15.4765 10.4044 15.4763Z" fill="#919191" stroke="#919191" stroke-width="2"/>
</svg>
