<svg width="676" height="451" viewBox="0 0 676 451" fill="none" xmlns="http://www.w3.org/2000/svg">
<g opacity="0.9">
<path d="M591.842 396.957L71.8425 383.205C47.6425 382.558 27.7425 365.483 25.3425 343.239L0.24249 114.34C-2.55751 88.4045 19.2425 65.7915 47.4425 65.4223L626.242 58.0385C655.443 57.6693 678.342 81.2053 674.742 107.972L641.042 358.007C637.943 380.805 616.642 397.603 591.842 396.957Z" fill="#EAF9F3"/>
<mask id="mask0_1_16344" style="mask-type:alpha" maskUnits="userSpaceOnUse" x="0" y="58" width="676" height="339">
<path d="M591.842 396.957L71.8425 383.205C47.6425 382.558 27.7425 365.483 25.3425 343.239L0.24249 114.34C-2.55751 88.4045 19.2425 65.7915 47.4425 65.4223L626.242 58.0385C655.443 57.6693 678.342 81.2053 674.742 107.972L641.042 358.007C637.943 380.805 616.642 397.603 591.842 396.957Z" fill="#EAF9F3"/>
</mask>
<g mask="url(#mask0_1_16344)">
<path d="M516.943 459.074H932.443C940.743 459.074 947.443 452.89 947.443 445.229V227.775C947.443 220.114 940.743 213.93 932.443 213.93H516.943C508.643 213.93 501.943 220.114 501.943 227.775V445.229C501.943 452.89 508.743 459.074 516.943 459.074Z" stroke="#B8D8C7" stroke-width="1.8" stroke-miterlimit="10" stroke-linecap="round" stroke-linejoin="round"/>
<path d="M-32.1572 444.491H386.943C395.243 444.491 401.943 438.307 401.943 430.646V112.864C401.943 105.203 395.243 99.019 386.943 99.019H-32.1572C-40.4572 99.019 -47.1572 105.203 -47.1572 112.864V430.646C-47.1572 438.307 -40.3572 444.491 -32.1572 444.491Z" stroke="#B8D8C7" stroke-width="1.8" stroke-miterlimit="10" stroke-linecap="round" stroke-linejoin="round"/>
<path d="M616.643 148.952H706.543V140.738H616.643C615.643 140.738 614.843 141.476 614.843 142.399V147.199C614.743 148.214 615.643 148.952 616.643 148.952Z" stroke="#B8D8C7" stroke-width="1.8" stroke-miterlimit="10" stroke-linecap="round" stroke-linejoin="round"/>
<path d="M632.943 140.737H653.243C655.443 140.737 657.243 139.261 657.543 137.23L659.143 123.939C659.443 121.632 657.443 119.509 654.843 119.509H631.343C628.743 119.509 626.843 121.539 627.043 123.939L628.643 137.23C628.843 139.261 630.743 140.737 632.943 140.737Z" stroke="#B8D8C7" stroke-width="1.8" stroke-miterlimit="10" stroke-linecap="round" stroke-linejoin="round"/>
<path d="M645.443 119.601C645.443 119.601 653.443 118.863 655.043 108.895C655.043 108.895 647.843 110.833 645.543 115.54C645.543 115.54 644.543 105.018 639.143 104.003C639.143 104.003 636.743 111.848 640.543 115.725C640.543 115.725 637.643 111.294 630.243 111.387C630.243 111.387 632.143 117.663 639.443 119.509" fill="#B8D8C7"/>
<path d="M520.143 259.802H610.343C612.643 259.802 614.543 258.049 614.543 255.926V230.636C614.543 228.513 612.643 226.76 610.343 226.76H520.143C517.843 226.76 515.943 228.513 515.943 230.636V255.926C515.943 258.049 517.843 259.802 520.143 259.802Z" stroke="#B8D8C7" stroke-width="1.8" stroke-miterlimit="10" stroke-linecap="round" stroke-linejoin="round"/>
<path d="M554.844 235.621H575.644C576.444 235.621 577.144 234.974 577.144 234.236C577.144 233.498 576.444 232.852 575.644 232.852H554.844C554.044 232.852 553.344 233.498 553.344 234.236C553.344 235.067 554.044 235.621 554.844 235.621Z" fill="#B8D8C7"/>
<path d="M520.143 302.075H610.343C612.643 302.075 614.543 300.321 614.543 298.198V272.909C614.543 270.786 612.643 269.032 610.343 269.032H520.143C517.843 269.032 515.943 270.786 515.943 272.909V298.106C515.943 300.321 517.843 302.075 520.143 302.075Z" stroke="#B8D8C7" stroke-width="1.8" stroke-miterlimit="10" stroke-linecap="round" stroke-linejoin="round"/>
<path d="M554.844 277.893H575.644C576.444 277.893 577.144 277.247 577.144 276.508C577.144 275.77 576.444 275.124 575.644 275.124H554.844C554.044 275.124 553.344 275.77 553.344 276.508C553.344 277.339 554.044 277.893 554.844 277.893Z" fill="#B8D8C7"/>
<path d="M56.9422 331.887H147.142C149.442 331.887 151.342 330.133 151.342 328.01V302.721C151.342 300.598 149.442 298.844 147.142 298.844H56.9422C54.6422 298.844 52.7422 300.598 52.7422 302.721V328.01C52.7422 330.133 54.6422 331.887 56.9422 331.887Z" stroke="#B8D8C7" stroke-width="1.8" stroke-miterlimit="10" stroke-linecap="round" stroke-linejoin="round"/>
<path d="M91.7422 307.797H112.542C113.342 307.797 114.042 307.151 114.042 306.413C114.042 305.674 113.342 305.028 112.542 305.028H91.7422C90.9422 305.028 90.2422 305.674 90.2422 306.413C90.2422 307.151 90.8422 307.797 91.7422 307.797Z" fill="#B8D8C7"/>
<path d="M172.743 331.887H262.943C265.243 331.887 267.143 330.133 267.143 328.01V302.721C267.143 300.598 265.243 298.844 262.943 298.844H172.743C170.443 298.844 168.543 300.598 168.543 302.721V328.01C168.543 330.133 170.443 331.887 172.743 331.887Z" stroke="#B8D8C7" stroke-width="1.8" stroke-miterlimit="10" stroke-linecap="round" stroke-linejoin="round"/>
<path d="M207.543 307.797H228.343C229.143 307.797 229.843 307.151 229.843 306.413C229.843 305.674 229.143 305.028 228.343 305.028H207.543C206.743 305.028 206.043 305.674 206.043 306.413C206.043 307.151 206.643 307.797 207.543 307.797Z" fill="#B8D8C7"/>
<path d="M635.143 259.802H725.343C727.643 259.802 729.543 258.049 729.543 255.926V230.636C729.543 228.513 727.643 226.76 725.343 226.76H635.143C632.843 226.76 630.943 228.513 630.943 230.636V255.926C630.943 258.049 632.843 259.802 635.143 259.802Z" stroke="#B8D8C7" stroke-width="1.8" stroke-miterlimit="10" stroke-linecap="round" stroke-linejoin="round"/>
<path d="M669.844 235.621H690.644C691.444 235.621 692.144 234.974 692.144 234.236C692.144 233.498 691.444 232.852 690.644 232.852H669.844C669.044 232.852 668.344 233.498 668.344 234.236C668.344 235.067 669.044 235.621 669.844 235.621Z" fill="#B8D8C7"/>
<path d="M635.143 302.075H725.343C727.643 302.075 729.543 300.321 729.543 298.198V272.909C729.543 270.786 727.643 269.032 725.343 269.032H635.143C632.843 269.032 630.943 270.786 630.943 272.909V298.106C630.943 300.321 632.843 302.075 635.143 302.075Z" stroke="#B8D8C7" stroke-width="1.8" stroke-miterlimit="10" stroke-linecap="round" stroke-linejoin="round"/>
<path d="M669.844 277.893H690.644C691.444 277.893 692.144 277.247 692.144 276.508C692.144 275.77 691.444 275.124 690.644 275.124H669.844C669.044 275.124 668.344 275.77 668.344 276.508C668.344 277.339 669.044 277.893 669.844 277.893Z" fill="#B8D8C7"/>
<path d="M-74.357 195.747H380.643C383.143 195.747 385.243 193.809 385.243 191.502V117.94C385.243 115.633 383.143 113.694 380.643 113.694H-74.357C-76.857 113.694 -78.957 115.633 -78.957 117.94V191.502C-78.957 193.901 -76.857 195.747 -74.357 195.747Z" stroke="#B8D8C7" stroke-width="1.8" stroke-miterlimit="10" stroke-linecap="round" stroke-linejoin="round"/>
<path d="M-74.357 287.122H380.643C383.143 287.122 385.243 285.184 385.243 282.877V209.315C385.243 207.008 383.143 205.069 380.643 205.069H-74.357C-76.857 205.069 -78.957 207.008 -78.957 209.315V282.877C-78.957 285.184 -76.857 287.122 -74.357 287.122Z" stroke="#B8D8C7" stroke-width="1.8" stroke-miterlimit="10" stroke-linecap="round" stroke-linejoin="round"/>
<path d="M344.774 195.767H354.674V149.341H344.774V195.767Z" stroke="#B8D8C7" stroke-width="1.8" stroke-miterlimit="10" stroke-linecap="round" stroke-linejoin="round"/>
<path d="M334.431 195.78H344.731V161.999H334.431V195.78Z" stroke="#B8D8C7" stroke-width="1.8" stroke-miterlimit="10" stroke-linecap="round" stroke-linejoin="round"/>
<path d="M46.3969 286.995H56.2969L56.2969 240.569H46.3969L46.3969 286.995Z" stroke="#B8D8C7" stroke-width="1.8" stroke-miterlimit="10" stroke-linecap="round" stroke-linejoin="round"/>
<path d="M36.0535 287.008H46.3535L46.3535 253.227H36.0535L36.0535 287.008Z" stroke="#B8D8C7" stroke-width="1.8" stroke-miterlimit="10" stroke-linecap="round" stroke-linejoin="round"/>
<path d="M66.4828 286.995H76.3828V240.569H66.4828V286.995Z" stroke="#B8D8C7" stroke-width="1.8" stroke-miterlimit="10" stroke-linecap="round" stroke-linejoin="round"/>
<path d="M91.3758 286.524L100.816 283.773L85.6711 239.501L76.2304 242.252L91.3758 286.524Z" stroke="#B8D8C7" stroke-width="1.8" stroke-miterlimit="10" stroke-linecap="round" stroke-linejoin="round"/>
<path d="M56.2391 287.008H66.5391V253.227H56.2391L56.2391 287.008Z" stroke="#B8D8C7" stroke-width="1.8" stroke-miterlimit="10" stroke-linecap="round" stroke-linejoin="round"/>
<path d="M46.5434 155.413L45.4434 141.661C45.3434 140.738 46.1434 140 47.1434 140H51.4434H55.7434C56.7434 140 57.4434 140.738 57.4434 141.661L56.3434 155.413C56.3434 155.413 65.3434 160.767 65.2434 165.197C65.1434 168.612 62.9434 184.949 61.9434 192.148C61.6434 194.178 59.8434 195.655 57.6434 195.655H51.4434H45.2434C43.0434 195.655 41.2434 194.178 40.9434 192.148C39.9434 184.949 37.7434 168.612 37.6434 165.197C37.5434 160.767 46.5434 155.413 46.5434 155.413Z" fill="#B8D8C7"/>
<path d="M685.643 374.16H-270.157" stroke="#B8D8C7" stroke-width="1.8" stroke-miterlimit="10" stroke-linecap="round" stroke-linejoin="round"/>
<path d="M249.443 287.122H166.243C163.543 287.122 161.343 285.092 161.343 282.6V270.416C161.343 267.924 163.543 265.894 166.243 265.894H249.443C252.143 265.894 254.343 267.924 254.343 270.416V282.507C254.343 285.092 252.143 287.122 249.443 287.122Z" stroke="#B8D8C7" stroke-width="1.8" stroke-miterlimit="10" stroke-linecap="round" stroke-linejoin="round"/>
<path d="M237.742 246.511H177.742V265.894H237.742V246.511Z" stroke="#B8D8C7" stroke-width="1.8" stroke-miterlimit="10" stroke-linecap="round" stroke-linejoin="round"/>
<path d="M170.742 274.385C171.571 274.385 172.242 273.765 172.242 273.001C172.242 272.236 171.571 271.616 170.742 271.616C169.914 271.616 169.242 272.236 169.242 273.001C169.242 273.765 169.914 274.385 170.742 274.385Z" fill="#B8D8C7"/>
</g>
<path d="M233.342 298.106H223.042L221.942 309.92H231.842L233.342 298.106Z" fill="#6DAFA7"/>
<path d="M221.942 309.92L208.842 447.444C208.742 449.013 210.042 450.398 211.742 450.398C213.242 450.398 214.442 449.382 214.642 447.998L231.842 309.92H221.942Z" fill="#B8D8C7"/>
<path d="M323.342 298.106H313.042L314.542 309.92H324.442L323.342 298.106Z" fill="#B8D8C7"/>
<path d="M314.543 309.92L331.743 447.998C331.943 449.382 333.143 450.398 334.643 450.398C336.343 450.398 337.743 449.013 337.543 447.444L324.443 309.92H314.543Z" fill="#B8D8C7"/>
<path d="M327.142 372.867H220.942V377.574H327.142V372.867Z" fill="#B8D8C7"/>
<path d="M333.942 301.521H212.442C210.442 301.521 208.942 300.044 208.942 298.291V298.014C208.942 296.168 210.542 294.783 212.442 294.783H334.042C336.042 294.783 337.542 296.26 337.542 298.014V298.291C337.542 300.044 335.942 301.521 333.942 301.521Z" fill="#22272E"/>
<path d="M521.242 244.388L431.742 239.312C425.042 238.943 420.242 233.313 421.442 227.221L455.542 50.8393C456.742 44.7476 462.142 40.225 468.742 39.5789L558.642 31.549C565.942 30.9029 571.942 36.81 570.742 43.5477L536.742 232.943C535.542 239.866 528.842 244.85 521.242 244.388Z" fill="#F8AB5D"/>
<path d="M516.343 243.835L426.843 238.758C420.143 238.389 415.343 232.759 416.543 226.667L450.643 50.2856C451.843 44.1939 457.243 39.6713 463.843 39.0252L553.743 30.9953C561.043 30.3492 567.043 36.2562 565.843 42.994L531.843 232.39C530.643 239.312 523.943 244.204 516.343 243.835Z" fill="#6DAFA7"/>
<path d="M606.543 144.153L468.743 146.368C465.143 146.46 462.443 143.414 463.043 140.184L473.143 87.1124C473.743 84.0666 476.443 81.8514 479.743 81.5746L615.743 73.1754C620.343 72.8985 624.143 76.6828 623.343 80.9285L613.343 138.615C613.043 141.753 610.043 144.153 606.543 144.153Z" fill="#6DAFA7"/>
<path d="M591.343 229.713L453.543 224.175C450.143 223.99 447.543 221.129 448.143 217.991L458.543 163.627C459.143 160.489 462.143 158.089 465.643 158.089L601.843 157.074C606.343 157.074 609.743 160.766 609.043 164.827L598.843 224.175C598.243 227.498 594.943 229.897 591.343 229.713Z" fill="#6DAFA7"/>
<path d="M448.543 60.8996L564.143 52.4082" stroke="#F8AB5D" stroke-width="1.8" stroke-miterlimit="10" stroke-linecap="round" stroke-linejoin="round"/>
<path d="M507.343 48.0703L497.443 48.9009C496.543 48.9932 496.043 48.3471 496.143 47.4242C496.343 46.5012 497.143 45.7628 498.043 45.6705L507.943 44.8398C508.843 44.7475 509.443 45.3936 509.243 46.3166C509.043 47.2396 508.143 47.978 507.343 48.0703Z" fill="#22272E"/>
<path d="M513.942 47.5165C513.042 47.6088 512.442 46.9628 512.642 46.0398C512.842 45.1168 513.642 44.3784 514.542 44.2861C515.442 44.1938 516.042 44.8399 515.842 45.7629C515.742 46.6859 514.842 47.5165 513.942 47.5165Z" fill="#22272E"/>
<path d="M625.343 53.7929L587.243 56.4695C585.843 56.5618 584.743 55.4542 585.043 54.2544L588.843 32.9335C589.043 31.6413 590.243 30.6261 591.643 30.5338L629.343 26.8419C630.943 26.6573 632.243 27.9494 632.043 29.4262L628.343 51.3931C627.943 52.6853 626.743 53.7006 625.343 53.7929Z" stroke="#6DAFA7" stroke-width="1.8" stroke-miterlimit="10" stroke-linecap="round" stroke-linejoin="round"/>
<path d="M589.843 31.0874L606.443 40.9633C607.343 41.5171 608.543 41.5171 609.443 40.9633L631.043 27.3032" stroke="#6DAFA7" stroke-width="1.8" stroke-miterlimit="10" stroke-linecap="round" stroke-linejoin="round"/>
<path d="M453.443 93.6658L422.143 95.2348L417.543 98.0038C416.443 98.6498 415.143 97.8192 415.343 96.6193L420.243 71.5142C420.643 69.4837 422.443 68.0069 424.643 67.8223L457.243 65.5148C459.343 65.3302 461.143 67.0839 460.743 69.0222L456.543 90.9891C456.243 92.5582 454.943 93.5735 453.443 93.6658Z" fill="#6DAFA7"/>
<path d="M426.343 75.2063L452.743 73.4526" stroke="#22272E" stroke-width="1.8" stroke-miterlimit="10" stroke-linecap="round" stroke-linejoin="round"/>
<path d="M425.143 81.3904L451.543 79.729" stroke="#22272E" stroke-width="1.8" stroke-miterlimit="10" stroke-linecap="round" stroke-linejoin="round"/>
<path d="M423.943 87.482L437.743 86.7437" stroke="#22272E" stroke-width="1.8" stroke-miterlimit="10" stroke-linecap="round" stroke-linejoin="round"/>
<path d="M599.142 138.523L461.342 140.738C457.742 140.83 455.042 137.784 455.642 134.554L465.742 81.4826C466.342 78.4367 469.042 76.2216 472.342 75.9447L608.342 67.5456C612.942 67.2687 616.742 71.0529 615.942 75.2986L605.942 132.985C605.542 136.123 602.642 138.523 599.142 138.523Z" fill="#22272E"/>
<path d="M497.043 98.3734C496.343 102.158 492.743 105.388 489.043 105.573C485.343 105.757 482.943 102.804 483.643 99.0195C484.343 95.2352 487.943 92.0048 491.643 91.8202C495.343 91.6356 497.743 94.5892 497.043 98.3734Z" fill="#6DAFA7"/>
<path d="M494.443 122.648L478.043 123.109C475.843 123.202 474.043 121.356 474.443 119.325L474.743 117.664C476.043 110.834 482.443 105.019 489.143 104.834C495.843 104.557 500.343 110.003 499.043 116.925L498.643 119.325C498.243 121.171 496.543 122.556 494.443 122.648Z" fill="#6DAFA7"/>
<path d="M584.343 99.0194L519.043 101.788C517.643 101.881 516.543 100.681 516.843 99.4809L517.543 95.4197C517.843 94.0353 519.043 93.02 520.543 92.9277L585.943 89.7896C587.343 89.6973 588.443 90.8048 588.143 92.097L587.343 96.5273C587.143 97.9118 585.843 99.0194 584.343 99.0194Z" fill="#6DAFA7"/>
<path d="M518.342 112.68L519.342 115.541L522.442 116.002L519.742 118.494L519.542 121.725L516.942 120.433L513.742 121.909L514.742 118.679L512.942 116.372L516.242 115.633L518.342 112.68Z" fill="#FFE779"/>
<path d="M533.342 112.218L534.442 115.08L537.542 115.541L534.842 118.033L534.742 121.263L531.942 119.971L528.742 121.448L529.742 118.218L527.942 115.818L531.242 115.172L533.342 112.218Z" fill="#FFE779"/>
<path d="M548.743 111.664L549.843 114.525L553.043 115.079L550.243 117.571L550.143 120.894L547.343 119.509L544.043 121.078L545.043 117.756L543.143 115.356L546.643 114.618L548.743 111.664Z" fill="#FFE779"/>
<path d="M564.442 111.11L565.542 114.064L568.842 114.525L566.042 117.11L565.942 120.432L563.042 119.048L559.642 120.617L560.742 117.202L558.742 114.895L562.242 114.156L564.442 111.11Z" fill="#FFE779"/>
<path d="M580.542 110.557L581.642 113.51L585.042 114.064L582.142 116.556L582.042 119.971L579.042 118.587L575.642 120.156L576.742 116.741L574.742 114.341L578.242 113.602L580.542 110.557Z" fill="#FFE779"/>
<path d="M583.843 224.083L446.143 218.453C442.743 218.268 440.143 215.407 440.743 212.269L451.143 157.905C451.743 154.767 454.743 152.367 458.243 152.367L594.443 151.352C598.943 151.352 602.343 155.044 601.643 159.105L591.443 218.453C590.743 221.868 587.543 224.268 583.843 224.083Z" fill="#22272E"/>
<path d="M482.343 176.918C481.643 180.795 478.043 183.933 474.243 183.841C470.543 183.749 468.143 180.61 468.843 176.734C469.543 172.857 473.143 169.812 476.843 169.812C480.643 169.904 483.143 173.042 482.343 176.918Z" fill="#6DAFA7"/>
<path d="M479.443 201.839L463.043 201.378C460.943 201.285 459.343 199.532 459.643 197.593L460.043 195.655C461.343 188.641 467.743 183.103 474.443 183.195C481.143 183.287 485.643 189.102 484.243 196.209L483.843 198.516C483.543 200.455 481.643 201.839 479.443 201.839Z" fill="#6DAFA7"/>
<path d="M569.443 182.641L504.143 181.81C502.843 181.81 501.843 180.703 502.043 179.503L502.843 175.257C503.143 173.78 504.443 172.765 506.043 172.765L571.443 173.227C572.743 173.227 573.743 174.334 573.543 175.534L572.743 180.149C572.443 181.533 571.043 182.641 569.443 182.641Z" fill="#6DAFA7"/>
<path d="M503.542 192.979L504.542 195.932L507.642 196.578L504.942 198.978L504.842 202.301L502.142 200.732L498.942 202.116L499.942 198.793L498.242 196.394L501.442 195.84L503.542 192.979Z" fill="#FFE779"/>
<path d="M518.643 193.255L519.643 196.209L522.843 196.947L520.043 199.347L519.943 202.67L517.143 201.193L513.943 202.577L514.943 199.255L513.143 196.67L516.543 196.209L518.643 193.255Z" fill="#FFE779"/>
<path d="M534.042 193.625L535.042 196.578L538.342 197.316L535.542 199.716L535.342 203.131L532.542 201.562L529.242 202.947L530.342 199.624L528.442 197.04L531.842 196.578L534.042 193.625Z" fill="#FFE779"/>
<path d="M549.742 193.901L550.842 196.947L554.142 197.686L551.242 200.178L551.142 203.593L548.242 202.024L544.842 203.408L545.942 199.993L544.042 197.409L547.542 196.855L549.742 193.901Z" fill="#63737A"/>
<path d="M565.742 194.271L566.942 197.316L570.242 198.055L567.342 200.547L567.242 204.054L564.342 202.393L560.842 203.87L561.942 200.362L559.942 197.87L563.542 197.316L565.742 194.271Z" fill="#63737A"/>
<path d="M581.442 11.3358C579.942 9.76673 577.342 9.67443 575.742 11.0589C574.042 12.4434 573.942 14.8431 575.442 16.3199C576.942 17.889 579.542 17.9813 581.142 16.5968C582.842 15.2123 582.942 12.8126 581.442 11.3358Z" fill="#22272E"/>
<path d="M576.042 2.65979L575.342 1.92141C572.942 -0.478335 568.942 -0.66294 566.342 1.55221C563.742 3.76737 563.543 7.45929 565.943 9.85904L566.642 10.5974C567.442 11.4281 568.042 12.4434 568.342 13.551C568.542 14.3816 568.842 15.3969 569.142 16.3199C569.742 18.3505 572.342 19.0888 574.042 17.7044L578.542 13.9202L583.042 10.1359C584.742 8.75147 584.142 6.16712 582.042 5.52103C581.042 5.15184 580.042 4.87495 579.142 4.59805C577.942 4.04426 576.942 3.49047 576.042 2.65979Z" fill="#6DAFA7"/>
<path d="M200.243 131.416L80.643 149.875C76.343 150.521 72.243 147.752 71.643 143.784L56.343 42.8095C55.743 38.8407 59.343 35.4257 63.643 35.8871L181.843 48.8089C185.243 49.1781 187.943 51.4855 188.643 54.6237L203.843 126.708C204.243 128.924 202.643 131.046 200.243 131.416Z" fill="#6DAFA7"/>
<path d="M205.243 130.124L85.6434 148.583C81.3434 149.229 77.2434 146.46 76.6434 142.492L61.2434 41.5175C60.6434 37.5487 64.2434 34.1337 68.5434 34.5952L186.743 47.5169C190.143 47.8861 192.843 50.1935 193.543 53.3317L208.743 125.416C209.243 127.632 207.643 129.754 205.243 130.124Z" fill="#6DAFA7"/>
<path d="M128.843 125.047L99.3431 128.185C97.1431 128.462 95.1431 126.986 94.8431 125.047L84.0431 58.4081C83.7431 56.5621 85.3431 54.9008 87.4431 55.0853L116.943 57.1159C118.843 57.2082 120.343 58.5004 120.643 60.254L131.643 121.725C131.843 123.294 130.543 124.863 128.843 125.047Z" fill="#22272E"/>
<path d="M131.243 123.848L101.743 126.986C99.5425 127.263 97.5425 125.786 97.2425 123.848L86.4425 57.2084C86.1425 55.3624 87.7425 53.701 89.8425 53.8856L119.342 55.9162C121.242 56.0085 122.743 57.3007 123.043 59.0543L134.043 120.525C134.243 122.094 133.043 123.663 131.243 123.848Z" fill="#6DAFA7"/>
<path d="M102.143 59.0542L106.743 59.3311" stroke="#22272E" stroke-width="1.8" stroke-miterlimit="10" stroke-linecap="round" stroke-linejoin="round"/>
<path d="M109.143 59.5156H109.443" stroke="#22272E" stroke-width="1.8" stroke-miterlimit="10" stroke-linecap="round" stroke-linejoin="round"/>
<path d="M87.3428 62.4692L123.943 64.2229" stroke="#22272E" stroke-width="1.8" stroke-miterlimit="10" stroke-linecap="round" stroke-linejoin="round"/>
<path d="M96.4434 118.679L133.043 115.541" stroke="#22272E" stroke-width="1.8" stroke-miterlimit="10" stroke-linecap="round" stroke-linejoin="round"/>
<path d="M170.943 67.361C171.443 69.9453 170.143 71.9759 168.043 71.8836C165.843 71.7913 163.643 69.5761 163.143 66.9918C162.643 64.3151 163.943 62.2846 166.143 62.4692C168.243 62.5615 170.343 64.7766 170.943 67.361Z" fill="#22272E"/>
<path d="M174.843 83.8823H165.843C164.243 83.8823 162.943 82.867 162.643 81.3903L162.343 79.9135C161.443 75.0217 163.943 71.2375 167.843 71.3298C171.743 71.4221 175.543 75.2986 176.443 80.0058L176.743 81.6672C177.043 82.867 176.143 83.8823 174.843 83.8823Z" fill="#22272E"/>
<path d="M164.343 98.4655C164.843 101.234 163.443 103.542 161.143 103.727C158.843 103.819 156.443 101.696 155.943 98.8347C155.443 95.9735 156.843 93.666 159.243 93.5737C161.543 93.5737 163.743 95.6966 164.343 98.4655Z" fill="#22272E"/>
<path d="M168.343 116.094L158.843 117.017C157.143 117.202 155.543 116.094 155.243 114.525L154.943 113.049C153.943 107.88 156.643 103.45 160.943 103.173C165.043 102.896 169.143 106.772 170.143 111.756L170.443 113.418C170.743 114.71 169.843 115.91 168.343 116.094Z" fill="#22272E"/>
<path d="M188.743 97.358C189.243 99.9424 188.143 102.065 186.143 102.25C184.143 102.342 182.043 100.312 181.543 97.7272C181.043 95.1429 182.243 92.9277 184.243 92.8354C186.243 92.8354 188.243 94.866 188.743 97.358Z" fill="#22272E"/>
<path d="M192.343 113.787L184.943 114.526C183.243 114.71 181.743 113.603 181.443 112.034L181.243 110.834C180.243 106.034 182.543 101.973 186.143 101.696C189.743 101.512 193.343 105.111 194.243 109.726L194.543 111.111C194.743 112.403 193.743 113.603 192.343 113.787Z" fill="#22272E"/>
<path d="M136.543 85.6362L145.743 85.5439" stroke="#22272E" stroke-width="1.8" stroke-linecap="round" stroke-linejoin="round"/>
<path d="M145.543 89.4203L150.743 86.2822C151.343 85.913 151.343 85.0823 150.643 84.8054L144.243 81.7596C143.543 81.3904 142.743 81.9442 142.943 82.6826L144.143 88.8666C144.243 89.5126 144.943 89.7895 145.543 89.4203Z" fill="#22272E"/>
<path d="M375.143 401.018C375.143 401.018 376.543 413.663 377.743 420.216C378.043 422.154 385.943 424.369 393.143 422.985C402.043 421.324 402.543 416.616 402.543 416.616C402.543 416.616 400.843 394.465 400.643 392.896C400.443 391.327 376.443 395.48 375.143 401.018Z" fill="#B28D93"/>
<path d="M400.343 409.233C393.443 412.463 384.443 412.555 379.143 412.279C376.743 412.186 374.743 410.433 374.443 408.217C373.943 404.156 373.543 401.018 373.543 401.018C374.943 394.834 401.843 390.219 402.043 391.973C402.143 392.804 402.643 398.803 403.143 404.802C403.343 406.556 402.143 408.31 400.343 409.233Z" fill="#22272E"/>
<path d="M377.543 419.478C377.543 419.478 376.243 421.047 376.843 424.646C377.343 428.246 376.743 444.398 378.943 446.336C381.143 448.182 405.943 446.89 417.043 444.583C428.943 442.091 436.443 437.753 437.243 435.445C438.443 432.123 437.443 431.661 425.143 428.338C412.843 425.108 406.643 420.308 404.043 417.632C402.343 415.878 398.743 414.586 395.543 417.17C394.043 418.37 392.243 422.708 388.943 422.708C381.043 422.616 378.343 419.109 377.543 419.478Z" fill="#6DAFA7"/>
<path d="M420.642 425.847C420.642 425.847 411.442 426.585 404.742 435.446" stroke="#313240" stroke-width="1.8" stroke-miterlimit="10" stroke-linecap="round" stroke-linejoin="round"/>
<path d="M413.043 422.616C413.043 422.616 404.643 423.355 398.843 431.292" stroke="#313140" stroke-width="1.8" stroke-miterlimit="10" stroke-linecap="round" stroke-linejoin="round"/>
<path d="M291.543 401.295C291.543 401.295 290.143 419.109 289.943 419.939C289.743 420.77 291.342 425.108 300.842 426.308C310.342 427.508 313.543 422.154 313.543 422.154C313.543 422.154 316.943 405.818 317.543 402.864C318.243 400.003 294.643 398.249 291.543 401.295Z" fill="#B28D93"/>
<path d="M319.342 402.495C319.042 403.695 318.342 407.018 317.642 410.71C317.242 412.74 315.442 414.309 313.242 414.494C304.242 415.417 296.942 413.571 292.842 412.094C290.742 411.356 289.342 409.418 289.542 407.295C289.842 403.603 290.042 400.557 290.042 400.557C293.442 397.142 320.042 399.172 319.342 402.495Z" fill="#22272E"/>
<path d="M289.943 419.293C289.943 419.293 287.543 419.847 287.343 423.631C287.143 427.323 282.443 444.675 282.643 446.521C282.843 448.275 283.943 450.675 299.043 450.49C314.143 450.306 322.543 451.044 325.343 448.829C328.243 446.614 324.343 441.537 321.543 436.922C318.643 432.308 314.543 425.385 313.843 421.601C313.843 421.601 311.443 423.078 310.543 423.17C309.643 423.262 308.743 419.293 303.143 419.293C296.643 419.293 294.343 422.616 293.743 422.524C292.943 422.432 290.743 420.955 289.943 419.293Z" fill="#6DAFA7"/>
<path d="M294.043 430.461C294.043 430.461 305.243 426.585 315.143 430.461" stroke="#313140" stroke-width="1.8" stroke-miterlimit="10" stroke-linecap="round" stroke-linejoin="round"/>
<path d="M293.242 435.722C293.242 435.722 306.542 431.846 317.542 435.722" stroke="#313140" stroke-width="1.8" stroke-miterlimit="10" stroke-linecap="round" stroke-linejoin="round"/>
<path d="M316.943 235.897C316.943 235.897 338.143 241.25 363.543 249.557C387.543 257.403 396.943 262.017 399.543 277.431C402.143 292.845 398.943 347.762 402.143 362.253C405.343 376.744 409.043 386.989 405.943 394.465C403.843 399.634 399.543 401.111 399.543 401.111C399.543 401.111 386.643 406.187 375.143 403.787C375.143 403.787 368.743 402.403 364.943 395.85C361.143 389.296 364.843 368.16 361.943 352.377C359.043 336.687 355.843 310.566 352.343 293.122C348.843 275.585 291.843 268.663 284.543 254.91C277.143 241.158 281.043 229.067 281.043 229.067C281.043 229.067 310.543 228.513 316.943 235.897Z" fill="#22272E"/>
<path d="M302.142 253.434C302.142 253.434 302.142 250.019 301.442 246.511" stroke="#63737A" stroke-width="1.8" stroke-miterlimit="10" stroke-linecap="round" stroke-linejoin="round"/>
<path d="M400.443 287.584C399.243 287.861 397.943 288.045 396.643 288.045C387.843 288.045 380.343 281.215 379.943 272.909C379.743 267.186 382.843 262.11 387.743 259.525C394.643 263.771 398.143 269.032 399.543 277.524C399.943 279.923 400.243 283.431 400.443 287.584Z" stroke="#63737A" stroke-width="1.8" stroke-miterlimit="10" stroke-linecap="round" stroke-linejoin="round"/>
<path d="M218.243 237.097C218.243 237.097 217.443 243.927 218.143 259.525C218.843 274.755 231.443 294.691 258.443 294.968C285.443 295.245 301.343 294.968 301.343 294.968C301.343 294.968 299.243 303.828 298.243 326.441C297.243 348.962 289.843 364.561 285.043 378.682C280.843 391.05 280.843 399.726 290.543 403.879C290.543 403.879 302.743 408.31 318.143 407.479C318.143 407.479 325.543 406.925 327.743 390.589C329.943 374.252 339.343 342.686 347.043 322.38C354.743 302.167 360.843 276.047 348.943 267.186C337.043 258.325 296.543 252.972 294.443 252.049C292.343 251.126 292.643 238.666 290.143 231.005C287.743 223.16 226.343 221.683 218.243 237.097Z" fill="#22272E"/>
<path d="M347.143 322.288C354.843 302.075 360.943 275.955 349.043 267.094C337.143 258.233 296.643 252.88 294.543 251.957" stroke="#63737A" stroke-width="1.8" stroke-miterlimit="10" stroke-linecap="round" stroke-linejoin="round"/>
<path d="M294.643 251.957C294.643 251.957 284.243 250.111 280.043 250.757" stroke="#63737A" stroke-width="1.8" stroke-miterlimit="10" stroke-linecap="round" stroke-linejoin="round"/>
<path d="M220.043 269.586C223.543 268.201 228.743 264.786 231.943 256.387" stroke="#63737A" stroke-width="1.8" stroke-miterlimit="10" stroke-linecap="round" stroke-linejoin="round"/>
<path d="M301.343 294.968C301.343 294.968 303.043 290.445 306.543 287.215" stroke="#63737A" stroke-width="1.8" stroke-miterlimit="10" stroke-linecap="round" stroke-linejoin="round"/>
<path d="M355.643 288.322C353.143 293.03 347.943 296.26 341.943 296.26C333.143 296.26 325.643 289.43 325.243 281.123C324.843 272.724 331.743 265.986 340.643 265.986C345.143 265.986 349.343 267.74 352.343 270.601C355.243 274.939 356.143 281.215 355.643 288.322Z" stroke="#63737A" stroke-width="1.8" stroke-miterlimit="10" stroke-linecap="round" stroke-linejoin="round"/>
<path d="M294.643 412.74C294.643 412.74 294.343 412.002 294.643 409.787" stroke="#63737A" stroke-width="1.8" stroke-miterlimit="10" stroke-linecap="round" stroke-linejoin="round"/>
<path d="M303.343 414.494C303.343 414.494 304.343 412.463 304.343 411.263" stroke="#63737A" stroke-width="1.8" stroke-miterlimit="10" stroke-linecap="round" stroke-linejoin="round"/>
<path d="M312.543 414.494C312.543 414.494 313.643 412.924 313.943 411.632" stroke="#63737A" stroke-width="1.8" stroke-miterlimit="10" stroke-linecap="round" stroke-linejoin="round"/>
<path d="M380.543 412.278C380.543 412.278 379.643 410.432 379.343 408.494" stroke="#63737A" stroke-width="1.8" stroke-miterlimit="10" stroke-linecap="round" stroke-linejoin="round"/>
<path d="M391.643 411.725C391.643 411.725 391.943 410.433 391.343 407.571" stroke="#63737A" stroke-width="1.8" stroke-miterlimit="10" stroke-linecap="round" stroke-linejoin="round"/>
<path d="M401.443 408.494C401.443 408.494 401.943 406.741 401.343 404.525" stroke="#63737A" stroke-width="1.8" stroke-miterlimit="10" stroke-linecap="round" stroke-linejoin="round"/>
<path d="M296.442 130.216C296.442 130.216 306.342 131.785 322.142 135.2C338.042 138.523 351.742 139.907 351.742 139.907C351.742 139.907 368.042 133.169 387.342 125.508C406.642 117.755 421.242 113.602 421.242 113.602C421.242 113.602 426.242 113.971 429.142 120.709C430.542 124.032 430.642 126.893 430.442 128.831C430.342 130.308 429.442 131.508 428.142 132.339C423.742 135.015 411.642 142.491 392.642 154.582C368.442 169.996 358.342 171.104 346.342 170.642C333.042 170.088 300.042 165.104 300.042 165.104C300.042 165.104 291.142 163.535 288.042 148.86C285.142 134.185 293.342 129.662 296.442 130.216Z" fill="#6DAFA7"/>
<path d="M351.542 170.642C351.542 170.642 347.642 169.627 350.242 165.566C352.842 161.505 363.042 158.274 369.342 160.674C374.642 162.704 371.442 166.12 371.442 166.12" stroke="#F8AB5D" stroke-width="1.8" stroke-miterlimit="10" stroke-linecap="round" stroke-linejoin="round"/>
<path d="M415.043 115.54C415.043 115.54 414.043 120.709 416.843 125.785C420.143 131.784 424.143 133.723 425.343 134.092" stroke="#F8AB5D" stroke-width="1.8" stroke-miterlimit="10" stroke-linecap="round" stroke-linejoin="round"/>
<path d="M421.243 113.602C421.243 113.602 420.443 119.232 422.943 123.939C424.143 126.339 425.643 128 426.843 129.016C427.843 129.846 429.243 130.123 430.543 129.662C431.643 129.2 433.143 128.739 434.243 128.646C436.443 128.462 442.443 129.662 445.943 127.354C449.443 125.047 450.243 124.77 450.743 124.678C451.243 124.585 456.543 124.585 457.443 124.216C459.243 123.478 459.643 120.709 458.743 119.601C457.943 118.678 452.743 118.586 451.743 117.201C450.743 115.909 451.643 114.34 457.243 113.048C462.843 111.756 472.743 108.895 472.443 106.68C472.243 104.557 466.843 106.126 460.043 106.772C453.343 107.418 450.043 107.602 447.243 106.587C444.543 105.664 440.643 105.664 436.343 107.603C433.543 108.895 430.543 110.002 425.243 112.125C423.343 113.048 421.243 113.602 421.243 113.602Z" fill="#B28D93"/>
<path d="M458.143 112.863C458.143 112.863 459.143 115.448 459.143 117.478C459.243 119.509 456.043 125.047 453.743 126.062C451.443 127.077 449.943 125.97 448.943 124.493C447.943 123.016 445.343 114.248 450.343 113.233C455.343 112.217 457.143 112.033 458.143 112.863Z" fill="#B28D93"/>
<path d="M458.644 119.601C457.844 118.678 452.644 118.586 451.644 117.202C450.644 115.909 451.544 114.34 457.144 113.048C462.744 111.756 472.644 108.895 472.344 106.68" stroke="#896068" stroke-width="1.8" stroke-miterlimit="10" stroke-linecap="round" stroke-linejoin="round"/>
<path d="M449.543 107.233C449.143 107.141 445.143 107.233 443.943 107.695" stroke="#896068" stroke-width="1.8" stroke-miterlimit="10" stroke-linecap="round" stroke-linejoin="round"/>
<path d="M445.843 127.354C449.343 124.955 450.143 124.77 450.643 124.678C451.143 124.586 456.443 124.586 457.343 124.216" stroke="#896068" stroke-width="1.8" stroke-miterlimit="10" stroke-linecap="round" stroke-linejoin="round"/>
<path d="M259.643 120.432C259.643 120.432 260.743 116.648 268.243 117.017C275.743 117.386 286.643 120.986 287.343 126.155C288.143 131.323 263.143 134.185 259.643 120.432Z" fill="#22272E"/>
<path d="M313.142 162.243C312.142 133.077 296.542 130.216 296.542 130.216C296.542 130.216 279.042 127.539 257.842 127.908C236.642 128.278 220.042 131.6 211.442 142.861C203.842 152.829 187.242 197.04 191.542 209.315C195.142 219.653 205.742 222.145 224.742 219.099C223.542 225.56 222.142 230.636 222.142 230.636C230.142 235.99 247.842 241.251 274.342 241.251C297.942 241.251 309.842 234.144 309.842 234.144C308.942 227.59 314.042 191.41 313.142 162.243Z" fill="#6DAFA7"/>
<path d="M287.543 137.046C288.643 143.23 289.143 156.705 290.943 169.443C292.743 182.18 293.043 200.916 293.143 218.822C293.243 236.728 296.643 250.757 296.643 250.757C310.143 246.604 319.743 236.82 319.743 236.82C319.743 236.82 321.043 235.343 317.543 223.437C314.043 211.53 313.143 169.443 313.143 169.443C313.143 169.443 314.143 158.644 311.943 148.491C309.743 138.43 302.343 131.323 296.643 129.662C290.943 128.093 287.043 128.37 287.043 128.37C287.043 128.37 287.243 133.077 287.543 137.046Z" fill="#E7E7E7"/>
<path d="M261.243 109.91C261.243 109.91 260.643 120.432 260.643 125.601C260.643 134.646 274.043 143.968 279.043 143.968C287.143 143.968 288.543 135.2 288.143 131.323C287.743 127.447 287.643 116.187 287.743 115.91C287.843 115.633 266.243 104.926 261.243 109.91Z" fill="#B28D93"/>
<path d="M266.043 115.448C267.543 126.893 277.443 132.893 288.143 132.523C288.143 132.154 288.143 131.693 288.043 131.416C287.843 129.847 287.743 127.078 287.743 124.401C280.043 128.093 270.543 122.094 266.043 115.448Z" fill="#896068"/>
<path d="M273.143 141.938C272.443 152.921 276.843 180.241 276.843 211.253C276.843 242.266 271.943 255.003 271.943 255.003C230.643 259.525 209.643 243.465 209.643 243.465C209.643 243.465 211.243 240.235 214.743 231.282C218.243 222.421 218.243 211.346 218.243 211.346C218.243 211.346 223.043 170.827 221.343 161.782C219.643 152.644 213.343 140.738 213.343 140.738C213.343 140.738 218.343 134 231.743 130.585C242.143 127.908 253.443 127.631 257.943 127.631L257.843 128.093C262.443 137.6 273.143 141.938 273.143 141.938Z" fill="#E7E7E7"/>
<path d="M237.442 224.821C240.942 225.744 248.842 227.498 258.142 227.129C259.442 227.037 260.442 227.775 260.342 228.698C260.342 228.79 260.342 228.79 260.342 228.79C260.242 229.529 259.342 230.175 258.342 230.267C253.842 230.544 242.242 229.898 236.242 227.683C235.242 227.313 234.742 226.483 234.942 225.744C235.142 224.914 236.342 224.544 237.442 224.821Z" fill="#6DAFA7"/>
<path d="M302.943 224.545C304.943 224.083 309.443 223.16 314.343 221.591C315.043 221.406 315.843 221.96 316.043 222.883V222.976C316.243 223.714 315.943 224.36 315.443 224.545C313.143 225.375 307.343 227.314 303.643 227.498C303.043 227.498 302.443 227.037 302.143 226.298C301.943 225.468 302.243 224.729 302.943 224.545Z" fill="#EAF9F3"/>
<path d="M303.942 178.857C303.742 178.857 303.542 178.857 303.442 178.857C295.842 182.641 291.442 182.456 290.942 178.949C291.742 178.488 292.442 178.026 293.142 177.565C294.842 176.549 296.742 175.903 298.642 175.626C299.842 175.442 301.342 175.257 303.042 175.165C303.042 175.165 305.242 174.703 305.642 175.442C306.042 175.996 305.942 177.38 303.942 178.857Z" fill="#B28D93"/>
<path d="M354.342 211.253L297.543 211.161C295.743 211.161 294.443 209.777 294.543 208.115L298.842 167.504C299.042 165.658 300.743 164.366 302.743 164.458L359.743 167.966C361.043 168.058 362.043 169.165 361.943 170.365L357.342 208.761C357.242 210.146 355.942 211.253 354.342 211.253Z" fill="#22272E"/>
<path d="M334.943 172.488C335.043 171.842 334.643 171.38 333.943 171.38C333.243 171.38 332.643 171.934 332.543 172.488C332.443 173.042 332.843 173.596 333.543 173.596C334.243 173.596 334.743 173.042 334.943 172.488Z" fill="#63737A"/>
<path d="M283.643 201.193C283.443 202.024 282.842 202.577 281.942 202.947C277.242 204.885 259.142 211.807 236.442 216.884C232.242 217.807 228.243 218.637 224.643 219.191C205.543 222.145 195.042 219.745 191.442 209.408C187.142 197.132 203.742 153.013 211.342 142.953C211.942 142.122 212.642 141.384 213.342 140.646C223.842 133.077 234.743 140.461 237.143 152.829C238.343 159.382 235.342 166.581 232.842 174.796C231.042 180.703 226.442 190.21 226.442 190.21L278.842 185.225C279.842 185.133 280.742 185.41 281.342 186.148C286.142 191.04 284.543 198.332 283.643 201.193Z" fill="#6DAFA7"/>
<path d="M226.442 190.117C226.442 190.117 216.242 191.225 212.342 193.625" stroke="#F8AB5D" stroke-width="1.8" stroke-miterlimit="10" stroke-linecap="round" stroke-linejoin="round"/>
<path d="M271.743 185.779C271.743 185.779 268.943 188.733 270.043 194.917C271.243 201.655 274.443 203.501 276.643 204.885" stroke="#F8AB5D" stroke-width="1.8" stroke-miterlimit="10" stroke-linecap="round" stroke-linejoin="round"/>
<path d="M191.442 210.238C191.442 210.238 190.342 204.7 199.042 204.608C207.742 204.516 217.542 215.591 211.442 220.391" stroke="#F8AB5D" stroke-width="1.8" stroke-miterlimit="10" stroke-linecap="round" stroke-linejoin="round"/>
<path d="M323.542 192.702C322.942 194.455 318.342 192.794 314.842 191.871C310.342 190.671 307.342 189.748 307.042 189.656C307.442 189.841 310.042 191.04 315.342 194.64C318.942 197.132 321.642 199.809 320.442 201.101C319.242 202.393 312.042 198.517 312.042 198.517C312.042 198.517 314.642 200.178 315.242 202.116C315.842 203.962 312.342 203.408 305.742 199.716C305.742 199.716 303.242 199.809 298.542 201.747C293.842 203.685 286.842 202.762 284.642 202.116C283.642 201.839 282.642 201.747 281.942 201.747C280.942 201.747 279.942 201.285 279.342 200.547C278.142 199.163 276.342 196.671 275.942 193.256C275.542 189.841 276.442 187.902 277.142 186.979C277.442 186.518 277.942 186.149 278.542 185.964C279.442 185.687 280.942 185.133 282.042 184.58C282.942 184.118 286.242 181.903 289.542 179.872C290.042 179.595 290.542 179.226 290.942 178.949C293.242 179.042 300.242 179.226 303.442 178.857C303.642 178.857 303.742 178.857 303.942 178.857C308.242 178.58 319.742 179.503 320.942 180.703C322.242 181.903 320.442 183.472 315.042 183.38C311.142 183.287 306.342 183.933 306.342 183.933C306.342 183.933 310.942 184.949 315.042 186.702C319.242 188.456 324.242 190.948 323.542 192.702Z" fill="#B28D93"/>
<path d="M307.142 189.656C307.142 189.656 305.542 189.102 304.342 188.825C303.142 188.548 302.142 188.548 302.142 188.548" stroke="#896068" stroke-width="1.8" stroke-miterlimit="10" stroke-linecap="round" stroke-linejoin="round"/>
<path d="M312.042 198.516C312.042 198.516 308.742 195.378 304.942 194.64C303.242 194.363 302.142 194.271 302.142 194.271" stroke="#896068" stroke-width="1.8" stroke-miterlimit="10" stroke-linecap="round" stroke-linejoin="round"/>
<path d="M306.442 183.933C306.442 183.933 303.742 183.841 302.142 184.303" stroke="#896068" stroke-width="1.8" stroke-miterlimit="10" stroke-linecap="round" stroke-linejoin="round"/>
<path d="M297.742 179.042C297.742 179.042 295.942 179.042 295.342 178.857" stroke="#896068" stroke-width="1.8" stroke-miterlimit="10" stroke-linecap="round" stroke-linejoin="round"/>
<path d="M287.243 132.431C287.143 131.231 287.143 130.031 287.243 128.739C287.343 127.816 287.443 126.801 287.343 126.155V124.032C287.343 124.032 287.943 125.232 289.143 127.17C290.343 129.016 288.543 137.6 287.643 138.615L287.243 132.431Z" fill="#22272E"/>
<path d="M298.143 91.3583C298.143 91.3583 297.543 97.6346 298.143 108.249C298.743 118.955 290.543 125.601 283.843 127.539C277.143 129.477 264.543 124.678 261.543 110.926C258.443 97.1731 252.043 81.667 269.443 76.0368C286.743 70.4066 298.343 78.252 298.143 91.3583Z" fill="#B28D93"/>
<path d="M260.543 101.05C260.543 101.05 262.643 99.8497 263.343 95.7886C263.543 94.5887 264.143 93.9426 264.843 93.5734C266.843 92.6504 268.443 91.0814 268.743 89.0508C268.943 87.2971 269.743 86.005 271.743 87.0203C287.443 95.4194 297.843 87.7586 297.843 87.7586L297.943 93.0196C304.043 91.4506 307.743 84.0667 306.543 78.6211C305.043 71.7911 302.243 73.0832 298.743 67.9146C295.343 62.7459 288.843 59.1462 280.643 61.8229C272.443 64.4995 269.443 65.6994 263.043 65.6071C256.743 65.5148 250.543 68.0068 250.043 73.5447C249.643 79.0826 244.043 80.744 243.043 85.9127C242.043 91.0814 244.243 93.6657 246.343 95.6963C248.443 97.7268 244.443 103.449 249.743 108.249C255.143 113.048 258.543 114.525 260.743 117.663C261.043 117.663 261.843 109.172 260.543 101.05Z" fill="#22272E"/>
<path d="M262.343 102.619C262.343 102.619 258.543 96.7117 253.443 99.3883C248.343 102.065 253.743 111.295 261.643 110.833" fill="#B28D93"/>
<path d="M289.642 98.0957C290.042 99.111 290.542 99.9417 291.142 100.68C291.442 101.049 291.742 101.326 292.042 101.603C292.342 101.788 293.042 102.341 293.342 102.895C294.042 104.095 293.942 105.387 293.442 106.403C293.242 106.956 292.842 107.418 292.442 107.787C292.042 108.156 291.542 108.525 290.942 108.618C291.642 107.787 291.942 106.864 292.042 106.033C292.142 105.203 292.042 104.28 291.742 103.726C291.542 103.357 291.342 103.264 290.842 102.803C290.442 102.341 290.042 101.88 289.842 101.326C289.442 100.219 289.342 99.111 289.642 98.0957Z" fill="#22272E"/>
<path d="M284.242 116.279C284.242 116.279 280.142 116.833 277.542 113.141" stroke="#22272E" stroke-width="1.8" stroke-miterlimit="10" stroke-linecap="round" stroke-linejoin="round"/>
<path d="M278.543 101.972C277.743 101.972 277.143 101.418 277.143 100.68V99.3879C277.143 98.6495 277.743 98.0957 278.543 98.0957C279.343 98.0957 279.943 98.6495 279.943 99.3879V100.68C279.943 101.418 279.243 101.972 278.543 101.972Z" fill="#22272E"/>
<path d="M294.043 101.972C293.243 101.972 292.643 101.418 292.643 100.68V99.3879C292.643 98.6495 293.243 98.0957 294.043 98.0957C294.843 98.0957 295.443 98.6495 295.443 99.3879V100.68C295.443 101.418 294.743 101.972 294.043 101.972Z" fill="#22272E"/>
<path d="M280.542 95.2346C279.542 95.6038 278.842 94.4962 277.342 94.8654C275.042 95.5115 273.942 96.2499 273.542 95.3269C273.242 94.6808 274.642 93.0194 276.842 92.4657C280.042 91.8196 282.342 94.5885 280.542 95.2346Z" fill="#22272E"/>
<path d="M292.142 95.2346C292.942 95.5115 293.542 94.4962 294.642 94.7731C296.142 95.2346 296.942 95.7884 297.142 95.05C297.342 94.4962 296.542 93.0194 295.042 92.558C292.642 91.8196 290.542 94.6808 292.142 95.2346Z" fill="#22272E"/>
<path d="M254.242 103.264C254.342 102.895 254.642 102.526 255.042 102.341C255.442 102.065 255.942 101.88 256.542 101.972C257.142 102.065 257.642 102.434 257.942 102.803C258.242 103.172 258.442 103.541 258.642 103.911C258.942 104.649 259.142 105.387 259.242 105.941C259.342 106.218 259.342 106.403 259.542 106.587C259.742 106.772 260.142 106.956 260.542 107.049C260.142 107.233 259.742 107.418 259.242 107.326C258.742 107.233 258.242 106.864 257.942 106.495C257.442 105.756 257.142 105.11 256.942 104.557C256.842 104.28 256.642 103.911 256.542 103.726C256.442 103.541 256.342 103.357 256.142 103.264C255.842 102.895 255.042 102.988 254.242 103.264Z" fill="#22272E"/>
<path d="M263.242 160.212C263.642 163.72 261.142 167.504 257.542 167.781C253.942 168.15 250.742 165.566 250.342 162.058C249.942 158.551 252.542 155.413 256.142 155.136C259.842 154.767 262.942 156.705 263.242 160.212Z" fill="#6DAFA7"/>
<path d="M273.142 141.938C273.142 141.938 262.442 137.6 257.742 128.001L259.642 120.432C259.642 120.432 262.642 126.339 269.442 129.57C271.742 130.677 273.242 132.8 273.342 135.2C273.442 137.138 273.342 139.63 273.142 141.938Z" fill="#6DAFA7"/>
<path d="M142.043 195.932C142.043 198.793 139.543 201.008 136.543 201.008C133.543 201.008 131.043 198.701 131.043 195.932C131.043 193.071 133.543 190.855 136.543 190.855C139.543 190.855 142.043 193.071 142.043 195.932Z" fill="#22272E"/>
<path d="M142.043 213.746H131.043C128.543 213.746 126.543 211.9 126.543 209.592C126.543 204.516 131.043 200.362 136.543 200.362C142.043 200.362 146.543 204.516 146.543 209.592C146.543 211.9 144.543 213.746 142.043 213.746Z" fill="#22272E"/>
<path d="M108.543 202.3C108.543 216.514 121.043 228.144 136.543 228.144C145.743 228.144 153.943 223.99 159.043 217.714" stroke="#6DAFA7" stroke-width="1.8" stroke-linecap="round" stroke-linejoin="round"/>
<path d="M162.043 220.76L162.243 212.453L154.343 216.422L162.043 220.76Z" fill="#6DAFA7"/>
<path d="M164.443 202.3C164.443 188.087 151.943 176.457 136.443 176.457C126.843 176.457 118.343 180.887 113.343 187.717" stroke="#6DAFA7" stroke-width="1.8" stroke-linecap="round" stroke-linejoin="round"/>
<path d="M110.243 184.764L110.443 192.978L118.143 188.732L110.243 184.764Z" fill="#6DAFA7"/>
</g>
</svg>
