<svg width="33" height="32" viewBox="0 0 33 32" fill="none" xmlns="http://www.w3.org/2000/svg">
    <path d="M17.2357 23.4165H22.5697C22.7243 23.4166 22.8725 23.4781 22.9818 23.5874C23.0911 23.6967 23.1526 23.8449 23.1527 23.9995C23.1527 24.1542 23.0912 24.3032 22.9818 24.4126C22.8725 24.5218 22.7242 24.5834 22.5697 24.5835H17.2357C17.0812 24.5834 16.9329 24.5218 16.8236 24.4126C16.7142 24.3032 16.6527 24.1542 16.6527 23.9995C16.6528 23.8449 16.7143 23.6967 16.8236 23.5874C16.9329 23.4781 17.0811 23.4166 17.2357 23.4165ZM17.2357 11.4165H22.5697C22.7243 11.4166 22.8725 11.4781 22.9818 11.5874C23.0911 11.6967 23.1526 11.8449 23.1527 11.9995C23.1527 12.1542 23.0912 12.3032 22.9818 12.4126C22.8725 12.5218 22.7242 12.5834 22.5697 12.5835H17.2357C17.0812 12.5834 16.9329 12.5218 16.8236 12.4126C16.7142 12.3032 16.6527 12.1542 16.6527 11.9995C16.6528 11.8449 16.7143 11.6967 16.8236 11.5874C16.9329 11.4781 17.0811 11.4166 17.2357 11.4165Z" fill="#919191" stroke="#919191" stroke-width="1.5"/>
    <path d="M17.2357 19.4165H27.9027C28.0573 19.4165 28.2054 19.4781 28.3148 19.5874C28.4241 19.6967 28.4856 19.8449 28.4857 19.9995C28.4857 20.1542 28.4242 20.3032 28.3148 20.4126C28.2054 20.5218 28.0572 20.5835 27.9027 20.5835H17.2357C17.0812 20.5834 16.9329 20.5218 16.8236 20.4126C16.7142 20.3032 16.6527 20.1542 16.6527 19.9995C16.6528 19.8449 16.7143 19.6967 16.8236 19.5874C16.9329 19.4781 17.0811 19.4166 17.2357 19.4165ZM17.2357 7.4165H27.9027C28.0573 7.4165 28.2054 7.47811 28.3148 7.5874C28.4241 7.69672 28.4856 7.84492 28.4857 7.99951C28.4857 8.15422 28.4242 8.3032 28.3148 8.4126C28.2054 8.52179 28.0572 8.5835 27.9027 8.5835H17.2357C17.0812 8.58341 16.9329 8.52182 16.8236 8.4126C16.7142 8.3032 16.6527 8.15422 16.6527 7.99951C16.6528 7.84492 16.7143 7.69672 16.8236 7.5874C16.9329 7.47808 17.0811 7.41659 17.2357 7.4165Z" fill="#919191" stroke="#919191" stroke-width="1.5"/>
    <path d="M5.09702 18.0811H11.764C11.9185 18.0811 12.0668 18.1418 12.1761 18.251C12.2855 18.3604 12.347 18.5094 12.347 18.6641V25.3311C12.3469 25.4856 12.2854 25.6339 12.1761 25.7432C12.0667 25.8524 11.9186 25.9141 11.764 25.9141H5.09702C4.94245 25.914 4.79422 25.8524 4.68491 25.7432C4.57561 25.6339 4.51413 25.4856 4.51401 25.3311V18.6641C4.51401 18.5094 4.57551 18.3604 4.68491 18.251C4.7942 18.1418 4.94255 18.0811 5.09702 18.0811ZM5.09702 6.08594H11.764C11.9186 6.08594 12.0667 6.14754 12.1761 6.25684C12.2854 6.36616 12.3469 6.51435 12.347 6.66895V13.3359C12.347 13.4906 12.2855 13.6386 12.1761 13.748C12.0667 13.8574 11.9187 13.9189 11.764 13.9189H5.09702C4.94242 13.9189 4.79423 13.8574 4.68491 13.748C4.57561 13.6387 4.51401 13.4906 4.51401 13.3359V6.66895C4.51409 6.51435 4.57559 6.36616 4.68491 6.25684C4.79423 6.14752 4.94242 6.08602 5.09702 6.08594Z" stroke="#919191" stroke-width="1.5"/>
</svg>
