<svg width="33" height="32" viewBox="0 0 33 32" fill="none" xmlns="http://www.w3.org/2000/svg">
    <path d="M16.5 2.28564C24.0743 2.28564 30.2143 8.42564 30.2143 15.9999C30.2143 23.5742 24.0743 29.7142 16.5 29.7142C8.92571 29.7142 2.78571 23.5742 2.78571 15.9999C2.78571 8.42564 8.92571 2.28564 16.5 2.28564ZM16.5 4.57136C10.188 4.57136 5.07142 9.68793 5.07142 15.9999C5.07142 22.3119 10.188 27.4285 16.5 27.4285C22.812 27.4285 27.9286 22.3119 27.9286 15.9999C27.9286 9.68793 22.812 4.57136 16.5 4.57136ZM16.8274 8.16336V9.69879C19.0994 9.88107 20.7446 11.2439 20.8171 13.3068H18.9268C18.8086 12.1616 17.9908 11.4982 16.8274 11.3531V15.1428L17.264 15.2514C19.6543 15.8062 20.9629 16.7879 20.9629 18.7234C20.9629 20.9502 19.1451 22.2131 16.8274 22.3771V23.9034H15.8006V22.3771C13.492 22.2039 11.6657 20.9045 11.6023 18.7234H13.4834C13.6468 19.7868 14.3377 20.5685 15.8006 20.7234V16.7599L15.428 16.6685C13.1194 16.1331 11.8748 15.0971 11.8748 13.2519C11.8748 11.2159 13.5103 9.87136 15.8006 9.69822V8.16279L16.8274 8.16336ZM16.8274 16.9965V20.7319C18.3817 20.6136 19.036 19.8776 19.036 18.9051C19.036 17.9691 18.5274 17.4148 16.8274 16.9965ZM15.8006 11.3531C14.492 11.5165 13.8011 12.2708 13.8011 13.0982C13.8011 13.9256 14.3468 14.5336 15.8011 14.8976L15.8006 11.3531Z" fill="#919191"/>
</svg>
